solid OpenSCAD_Model
  facet normal -0.999506 -0.031414 0
    outer loop
      vertex 22.5 0 0
      vertex 22.4852 0.470928 10
      vertex 22.4852 0.470928 0
    endloop
  endfacet
  facet normal -0.999506 -0.031414 0
    outer loop
      vertex 22.4852 0.470928 10
      vertex 22.5 0 0
      vertex 22.5 0 10
    endloop
  endfacet
  facet normal -0.0314119 -0.999507 0
    outer loop
      vertex 15 7.5 0
      vertex 15.4709 7.4852 10
      vertex 15 7.5 10
    endloop
  endfacet
  facet normal -0.0314119 -0.999507 -0
    outer loop
      vertex 15.4709 7.4852 10
      vertex 15 7.5 0
      vertex 15.4709 7.4852 0
    endloop
  endfacet
  facet normal -0.707106 -0.707108 0
    outer loop
      vertex 20.1341 5.46726 0
      vertex 20.4673 5.1341 10
      vertex 20.1341 5.46726 10
    endloop
  endfacet
  facet normal -0.707106 -0.707108 -0
    outer loop
      vertex 20.4673 5.1341 10
      vertex 20.1341 5.46726 0
      vertex 20.4673 5.1341 0
    endloop
  endfacet
  facet normal -0.917753 -0.397151 0
    outer loop
      vertex 21.9733 2.76093 0
      vertex 21.7862 3.19334 10
      vertex 21.7862 3.19334 0
    endloop
  endfacet
  facet normal -0.917753 -0.397151 0
    outer loop
      vertex 21.7862 3.19334 10
      vertex 21.9733 2.76093 0
      vertex 21.9733 2.76093 10
    endloop
  endfacet
  facet normal -0.397147 -0.917755 0
    outer loop
      vertex 17.7609 6.97332 0
      vertex 18.1933 6.7862 10
      vertex 17.7609 6.97332 10
    endloop
  endfacet
  facet normal -0.397147 -0.917755 -0
    outer loop
      vertex 18.1933 6.7862 10
      vertex 17.7609 6.97332 0
      vertex 18.1933 6.7862 0
    endloop
  endfacet
  facet normal -0.562081 -0.827082 0
    outer loop
      vertex 19.0187 6.33246 0
      vertex 19.4084 6.06763 10
      vertex 19.0187 6.33246 10
    endloop
  endfacet
  facet normal -0.562081 -0.827082 -0
    outer loop
      vertex 19.4084 6.06763 10
      vertex 19.0187 6.33246 0
      vertex 19.4084 6.06763 0
    endloop
  endfacet
  facet normal -0.917753 0.397151 0
    outer loop
      vertex 21.7862 -3.19334 0
      vertex 21.9733 -2.76093 10
      vertex 21.9733 -2.76093 0
    endloop
  endfacet
  facet normal -0.917753 0.397151 0
    outer loop
      vertex 21.9733 -2.76093 10
      vertex 21.7862 -3.19334 0
      vertex 21.7862 -3.19334 10
    endloop
  endfacet
  facet normal -0.397147 0.917755 0
    outer loop
      vertex 18.1933 -6.7862 0
      vertex 17.7609 -6.97332 10
      vertex 18.1933 -6.7862 10
    endloop
  endfacet
  facet normal -0.397147 0.917755 0
    outer loop
      vertex 17.7609 -6.97332 10
      vertex 18.1933 -6.7862 0
      vertex 17.7609 -6.97332 0
    endloop
  endfacet
  facet normal -0.975917 -0.218141 0
    outer loop
      vertex 22.3672 1.40536 0
      vertex 22.2644 1.86517 10
      vertex 22.2644 1.86517 0
    endloop
  endfacet
  facet normal -0.975917 -0.218141 0
    outer loop
      vertex 22.2644 1.86517 10
      vertex 22.3672 1.40536 0
      vertex 22.3672 1.40536 10
    endloop
  endfacet
  facet normal -0.960293 -0.278993 0
    outer loop
      vertex 22.2644 1.86517 0
      vertex 22.1329 2.31763 10
      vertex 22.1329 2.31763 0
    endloop
  endfacet
  facet normal -0.960293 -0.278993 0
    outer loop
      vertex 22.1329 2.31763 10
      vertex 22.2644 1.86517 0
      vertex 22.2644 1.86517 10
    endloop
  endfacet
  facet normal -0.827081 -0.562083 0
    outer loop
      vertex 21.3325 4.0187 0
      vertex 21.0676 4.40839 10
      vertex 21.0676 4.40839 0
    endloop
  endfacet
  facet normal -0.827081 -0.562083 0
    outer loop
      vertex 21.0676 4.40839 10
      vertex 21.3325 4.0187 0
      vertex 21.3325 4.0187 10
    endloop
  endfacet
  facet normal -0.790155 -0.612907 0
    outer loop
      vertex 21.0676 4.40839 0
      vertex 20.7788 4.78068 10
      vertex 20.7788 4.78068 0
    endloop
  endfacet
  facet normal -0.790155 -0.612907 0
    outer loop
      vertex 20.7788 4.78068 10
      vertex 21.0676 4.40839 0
      vertex 21.0676 4.40839 10
    endloop
  endfacet
  facet normal -0.891008 -0.453988 0
    outer loop
      vertex 21.7862 3.19334 0
      vertex 21.5723 3.61315 10
      vertex 21.5723 3.61315 0
    endloop
  endfacet
  facet normal -0.891008 -0.453988 0
    outer loop
      vertex 21.5723 3.61315 10
      vertex 21.7862 3.19334 0
      vertex 21.7862 3.19334 10
    endloop
  endfacet
  facet normal -0.218145 -0.975916 0
    outer loop
      vertex 16.4054 7.36715 0
      vertex 16.8652 7.26437 10
      vertex 16.4054 7.36715 10
    endloop
  endfacet
  facet normal -0.218145 -0.975916 -0
    outer loop
      vertex 16.8652 7.26437 10
      vertex 16.4054 7.36715 0
      vertex 16.8652 7.26437 0
    endloop
  endfacet
  facet normal -0.338738 -0.940881 0
    outer loop
      vertex 17.3176 7.13292 0
      vertex 17.7609 6.97332 10
      vertex 17.3176 7.13292 10
    endloop
  endfacet
  facet normal -0.338738 -0.940881 -0
    outer loop
      vertex 17.7609 6.97332 10
      vertex 17.3176 7.13292 0
      vertex 17.7609 6.97332 0
    endloop
  endfacet
  facet normal -0.156434 -0.987688 0
    outer loop
      vertex 15.94 7.44086 0
      vertex 16.4054 7.36715 10
      vertex 15.94 7.44086 10
    endloop
  endfacet
  facet normal -0.156434 -0.987688 -0
    outer loop
      vertex 16.4054 7.36715 10
      vertex 15.94 7.44086 0
      vertex 16.4054 7.36715 0
    endloop
  endfacet
  facet normal -0.509043 -0.860741 0
    outer loop
      vertex 18.6132 6.5723 0
      vertex 19.0187 6.33246 10
      vertex 18.6132 6.5723 10
    endloop
  endfacet
  facet normal -0.509043 -0.860741 -0
    outer loop
      vertex 19.0187 6.33246 10
      vertex 18.6132 6.5723 0
      vertex 19.0187 6.33246 0
    endloop
  endfacet
  facet normal -0.612908 -0.790154 0
    outer loop
      vertex 19.4084 6.06763 0
      vertex 19.7807 5.77885 10
      vertex 19.4084 6.06763 10
    endloop
  endfacet
  facet normal -0.612908 -0.790154 -0
    outer loop
      vertex 19.7807 5.77885 10
      vertex 19.4084 6.06763 0
      vertex 19.7807 5.77885 0
    endloop
  endfacet
  facet normal -0.612908 0.790154 0
    outer loop
      vertex 19.7807 -5.77885 0
      vertex 19.4084 -6.06763 10
      vertex 19.7807 -5.77885 10
    endloop
  endfacet
  facet normal -0.612908 0.790154 0
    outer loop
      vertex 19.4084 -6.06763 10
      vertex 19.7807 -5.77885 0
      vertex 19.4084 -6.06763 0
    endloop
  endfacet
  facet normal -0.45399 0.891007 0
    outer loop
      vertex 18.6132 -6.5723 0
      vertex 18.1933 -6.7862 10
      vertex 18.6132 -6.5723 10
    endloop
  endfacet
  facet normal -0.45399 0.891007 0
    outer loop
      vertex 18.1933 -6.7862 10
      vertex 18.6132 -6.5723 0
      vertex 18.1933 -6.7862 0
    endloop
  endfacet
  facet normal -0.860741 0.509043 0
    outer loop
      vertex 21.3325 -4.0187 0
      vertex 21.5723 -3.61315 10
      vertex 21.5723 -3.61315 0
    endloop
  endfacet
  facet normal -0.860741 0.509043 0
    outer loop
      vertex 21.5723 -3.61315 10
      vertex 21.3325 -4.0187 0
      vertex 21.3325 -4.0187 10
    endloop
  endfacet
  facet normal -0.995562 0.0941041 0
    outer loop
      vertex 22.4409 -0.939999 0
      vertex 22.4852 -0.470928 10
      vertex 22.4852 -0.470928 0
    endloop
  endfacet
  facet normal -0.995562 0.0941041 0
    outer loop
      vertex 22.4852 -0.470928 10
      vertex 22.4409 -0.939999 0
      vertex 22.4409 -0.939999 10
    endloop
  endfacet
  facet normal -0.987688 -0.156438 0
    outer loop
      vertex 22.4409 0.939999 0
      vertex 22.3672 1.40536 10
      vertex 22.3672 1.40536 0
    endloop
  endfacet
  facet normal -0.987688 -0.156438 0
    outer loop
      vertex 22.3672 1.40536 10
      vertex 22.4409 0.939999 0
      vertex 22.4409 0.939999 10
    endloop
  endfacet
  facet normal -0.995562 -0.0941041 0
    outer loop
      vertex 22.4852 0.470928 0
      vertex 22.4409 0.939999 10
      vertex 22.4409 0.939999 0
    endloop
  endfacet
  facet normal -0.995562 -0.0941041 0
    outer loop
      vertex 22.4409 0.939999 10
      vertex 22.4852 0.470928 0
      vertex 22.4852 0.470928 10
    endloop
  endfacet
  facet normal -0.940881 -0.338736 0
    outer loop
      vertex 22.1329 2.31763 0
      vertex 21.9733 2.76093 10
      vertex 21.9733 2.76093 0
    endloop
  endfacet
  facet normal -0.940881 -0.338736 0
    outer loop
      vertex 21.9733 2.76093 10
      vertex 22.1329 2.31763 0
      vertex 22.1329 2.31763 10
    endloop
  endfacet
  facet normal -0.750111 -0.661312 0
    outer loop
      vertex 20.7788 4.78068 0
      vertex 20.4673 5.1341 10
      vertex 20.4673 5.1341 0
    endloop
  endfacet
  facet normal -0.750111 -0.661312 0
    outer loop
      vertex 20.4673 5.1341 10
      vertex 20.7788 4.78068 0
      vertex 20.7788 4.78068 10
    endloop
  endfacet
  facet normal -0.860741 -0.509043 0
    outer loop
      vertex 21.5723 3.61315 0
      vertex 21.3325 4.0187 10
      vertex 21.3325 4.0187 0
    endloop
  endfacet
  facet normal -0.860741 -0.509043 0
    outer loop
      vertex 21.3325 4.0187 10
      vertex 21.5723 3.61315 0
      vertex 21.5723 3.61315 10
    endloop
  endfacet
  facet normal -0.278991 -0.960294 0
    outer loop
      vertex 16.8652 7.26437 0
      vertex 17.3176 7.13292 10
      vertex 16.8652 7.26437 10
    endloop
  endfacet
  facet normal -0.278991 -0.960294 -0
    outer loop
      vertex 17.3176 7.13292 10
      vertex 16.8652 7.26437 0
      vertex 17.3176 7.13292 0
    endloop
  endfacet
  facet normal -0.0941082 -0.995562 0
    outer loop
      vertex 15.4709 7.4852 0
      vertex 15.94 7.44086 10
      vertex 15.4709 7.4852 10
    endloop
  endfacet
  facet normal -0.0941082 -0.995562 -0
    outer loop
      vertex 15.94 7.44086 10
      vertex 15.4709 7.4852 0
      vertex 15.94 7.44086 0
    endloop
  endfacet
  facet normal -0.45399 -0.891007 0
    outer loop
      vertex 18.1933 6.7862 0
      vertex 18.6132 6.5723 10
      vertex 18.1933 6.7862 10
    endloop
  endfacet
  facet normal -0.45399 -0.891007 -0
    outer loop
      vertex 18.6132 6.5723 10
      vertex 18.1933 6.7862 0
      vertex 18.6132 6.5723 0
    endloop
  endfacet
  facet normal -0.661313 -0.75011 0
    outer loop
      vertex 19.7807 5.77885 0
      vertex 20.1341 5.46726 10
      vertex 19.7807 5.77885 10
    endloop
  endfacet
  facet normal -0.661313 -0.75011 -0
    outer loop
      vertex 20.1341 5.46726 10
      vertex 19.7807 5.77885 0
      vertex 20.1341 5.46726 0
    endloop
  endfacet
  facet normal -0.999506 0.031414 0
    outer loop
      vertex 22.4852 -0.470928 0
      vertex 22.5 0 10
      vertex 22.5 0 0
    endloop
  endfacet
  facet normal -0.999506 0.031414 0
    outer loop
      vertex 22.5 0 10
      vertex 22.4852 -0.470928 0
      vertex 22.4852 -0.470928 10
    endloop
  endfacet
  facet normal -0.0314119 0.999507 0
    outer loop
      vertex 15.4709 -7.4852 0
      vertex 15 -7.5 10
      vertex 15.4709 -7.4852 10
    endloop
  endfacet
  facet normal -0.0314119 0.999507 0
    outer loop
      vertex 15 -7.5 10
      vertex 15.4709 -7.4852 0
      vertex 15 -7.5 0
    endloop
  endfacet
  facet normal -0.156434 0.987688 0
    outer loop
      vertex 16.4054 -7.36715 0
      vertex 15.94 -7.44086 10
      vertex 16.4054 -7.36715 10
    endloop
  endfacet
  facet normal -0.156434 0.987688 0
    outer loop
      vertex 15.94 -7.44086 10
      vertex 16.4054 -7.36715 0
      vertex 15.94 -7.44086 0
    endloop
  endfacet
  facet normal -0.338738 0.940881 0
    outer loop
      vertex 17.7609 -6.97332 0
      vertex 17.3176 -7.13292 10
      vertex 17.7609 -6.97332 10
    endloop
  endfacet
  facet normal -0.338738 0.940881 0
    outer loop
      vertex 17.3176 -7.13292 10
      vertex 17.7609 -6.97332 0
      vertex 17.3176 -7.13292 0
    endloop
  endfacet
  facet normal -0.218145 0.975916 0
    outer loop
      vertex 16.8652 -7.26437 0
      vertex 16.4054 -7.36715 10
      vertex 16.8652 -7.26437 10
    endloop
  endfacet
  facet normal -0.218145 0.975916 0
    outer loop
      vertex 16.4054 -7.36715 10
      vertex 16.8652 -7.26437 0
      vertex 16.4054 -7.36715 0
    endloop
  endfacet
  facet normal -0.661313 0.75011 0
    outer loop
      vertex 20.1341 -5.46726 0
      vertex 19.7807 -5.77885 10
      vertex 20.1341 -5.46726 10
    endloop
  endfacet
  facet normal -0.661313 0.75011 0
    outer loop
      vertex 19.7807 -5.77885 10
      vertex 20.1341 -5.46726 0
      vertex 19.7807 -5.77885 0
    endloop
  endfacet
  facet normal -0.509043 0.860741 0
    outer loop
      vertex 19.0187 -6.33246 0
      vertex 18.6132 -6.5723 10
      vertex 19.0187 -6.33246 10
    endloop
  endfacet
  facet normal -0.509043 0.860741 0
    outer loop
      vertex 18.6132 -6.5723 10
      vertex 19.0187 -6.33246 0
      vertex 18.6132 -6.5723 0
    endloop
  endfacet
  facet normal -0.750111 0.661312 0
    outer loop
      vertex 20.4673 -5.1341 0
      vertex 20.7788 -4.78068 10
      vertex 20.7788 -4.78068 0
    endloop
  endfacet
  facet normal -0.750111 0.661312 0
    outer loop
      vertex 20.7788 -4.78068 10
      vertex 20.4673 -5.1341 0
      vertex 20.4673 -5.1341 10
    endloop
  endfacet
  facet normal -0.827081 0.562083 0
    outer loop
      vertex 21.0676 -4.40839 0
      vertex 21.3325 -4.0187 10
      vertex 21.3325 -4.0187 0
    endloop
  endfacet
  facet normal -0.827081 0.562083 0
    outer loop
      vertex 21.3325 -4.0187 10
      vertex 21.0676 -4.40839 0
      vertex 21.0676 -4.40839 10
    endloop
  endfacet
  facet normal -0.891008 0.453988 0
    outer loop
      vertex 21.5723 -3.61315 0
      vertex 21.7862 -3.19334 10
      vertex 21.7862 -3.19334 0
    endloop
  endfacet
  facet normal -0.891008 0.453988 0
    outer loop
      vertex 21.7862 -3.19334 10
      vertex 21.5723 -3.61315 0
      vertex 21.5723 -3.61315 10
    endloop
  endfacet
  facet normal -0.940881 0.338736 0
    outer loop
      vertex 21.9733 -2.76093 0
      vertex 22.1329 -2.31763 10
      vertex 22.1329 -2.31763 0
    endloop
  endfacet
  facet normal -0.940881 0.338736 0
    outer loop
      vertex 22.1329 -2.31763 10
      vertex 21.9733 -2.76093 0
      vertex 21.9733 -2.76093 10
    endloop
  endfacet
  facet normal -0.987688 0.156438 0
    outer loop
      vertex 22.3672 -1.40536 0
      vertex 22.4409 -0.939999 10
      vertex 22.4409 -0.939999 0
    endloop
  endfacet
  facet normal -0.987688 0.156438 0
    outer loop
      vertex 22.4409 -0.939999 10
      vertex 22.3672 -1.40536 0
      vertex 22.3672 -1.40536 10
    endloop
  endfacet
  facet normal -0.0941082 0.995562 0
    outer loop
      vertex 15.94 -7.44086 0
      vertex 15.4709 -7.4852 10
      vertex 15.94 -7.44086 10
    endloop
  endfacet
  facet normal -0.0941082 0.995562 0
    outer loop
      vertex 15.4709 -7.4852 10
      vertex 15.94 -7.44086 0
      vertex 15.4709 -7.4852 0
    endloop
  endfacet
  facet normal -0.278991 0.960294 0
    outer loop
      vertex 17.3176 -7.13292 0
      vertex 16.8652 -7.26437 10
      vertex 17.3176 -7.13292 10
    endloop
  endfacet
  facet normal -0.278991 0.960294 0
    outer loop
      vertex 16.8652 -7.26437 10
      vertex 17.3176 -7.13292 0
      vertex 16.8652 -7.26437 0
    endloop
  endfacet
  facet normal -0.707106 0.707108 0
    outer loop
      vertex 20.4673 -5.1341 0
      vertex 20.1341 -5.46726 10
      vertex 20.4673 -5.1341 10
    endloop
  endfacet
  facet normal -0.707106 0.707108 0
    outer loop
      vertex 20.1341 -5.46726 10
      vertex 20.4673 -5.1341 0
      vertex 20.1341 -5.46726 0
    endloop
  endfacet
  facet normal -0.562081 0.827082 0
    outer loop
      vertex 19.4084 -6.06763 0
      vertex 19.0187 -6.33246 10
      vertex 19.4084 -6.06763 10
    endloop
  endfacet
  facet normal -0.562081 0.827082 0
    outer loop
      vertex 19.0187 -6.33246 10
      vertex 19.4084 -6.06763 0
      vertex 19.0187 -6.33246 0
    endloop
  endfacet
  facet normal -0.790155 0.612907 0
    outer loop
      vertex 20.7788 -4.78068 0
      vertex 21.0676 -4.40839 10
      vertex 21.0676 -4.40839 0
    endloop
  endfacet
  facet normal -0.790155 0.612907 0
    outer loop
      vertex 21.0676 -4.40839 10
      vertex 20.7788 -4.78068 0
      vertex 20.7788 -4.78068 10
    endloop
  endfacet
  facet normal -0.960293 0.278993 0
    outer loop
      vertex 22.1329 -2.31763 0
      vertex 22.2644 -1.86517 10
      vertex 22.2644 -1.86517 0
    endloop
  endfacet
  facet normal -0.960293 0.278993 0
    outer loop
      vertex 22.2644 -1.86517 10
      vertex 22.1329 -2.31763 0
      vertex 22.1329 -2.31763 10
    endloop
  endfacet
  facet normal -0.975917 0.218141 0
    outer loop
      vertex 22.2644 -1.86517 0
      vertex 22.3672 -1.40536 10
      vertex 22.3672 -1.40536 0
    endloop
  endfacet
  facet normal -0.975917 0.218141 0
    outer loop
      vertex 22.3672 -1.40536 10
      vertex 22.2644 -1.86517 0
      vertex 22.2644 -1.86517 10
    endloop
  endfacet
  facet normal 0.661312 0.750111 -0
    outer loop
      vertex 20.8186 6.19623 0
      vertex 20.4181 6.54936 10
      vertex 20.8186 6.19623 10
    endloop
  endfacet
  facet normal 0.661312 0.750111 0
    outer loop
      vertex 20.4181 6.54936 10
      vertex 20.8186 6.19623 0
      vertex 20.4181 6.54936 0
    endloop
  endfacet
  facet normal 0.917755 -0.397148 0
    outer loop
      vertex 22.691 -3.61912 10
      vertex 22.9031 -3.12906 0
      vertex 22.9031 -3.12906 10
    endloop
  endfacet
  facet normal 0.917755 -0.397148 0
    outer loop
      vertex 22.9031 -3.12906 0
      vertex 22.691 -3.61912 10
      vertex 22.691 -3.61912 0
    endloop
  endfacet
  facet normal 0.917755 0.397148 0
    outer loop
      vertex 22.9031 3.12906 10
      vertex 22.691 3.61912 0
      vertex 22.691 3.61912 10
    endloop
  endfacet
  facet normal 0.917755 0.397148 0
    outer loop
      vertex 22.691 3.61912 0
      vertex 22.9031 3.12906 10
      vertex 22.9031 3.12906 0
    endloop
  endfacet
  facet normal 0.891007 0.453989 0
    outer loop
      vertex 22.691 3.61912 10
      vertex 22.4486 4.09491 0
      vertex 22.4486 4.09491 10
    endloop
  endfacet
  facet normal 0.891007 0.453989 0
    outer loop
      vertex 22.4486 4.09491 0
      vertex 22.691 3.61912 10
      vertex 22.691 3.61912 0
    endloop
  endfacet
  facet normal 0.397149 0.917754 -0
    outer loop
      vertex 18.6191 7.69103 0
      vertex 18.1291 7.9031 10
      vertex 18.6191 7.69103 10
    endloop
  endfacet
  facet normal 0.397149 0.917754 0
    outer loop
      vertex 18.1291 7.9031 10
      vertex 18.6191 7.69103 0
      vertex 18.1291 7.9031 0
    endloop
  endfacet
  facet normal 0.156434 0.987688 -0
    outer loop
      vertex 16.5927 8.34944 0
      vertex 16.0653 8.43297 10
      vertex 16.5927 8.34944 10
    endloop
  endfacet
  facet normal 0.156434 0.987688 0
    outer loop
      vertex 16.0653 8.43297 10
      vertex 16.5927 8.34944 0
      vertex 16.0653 8.43297 0
    endloop
  endfacet
  facet normal 0.999507 -0.0314116 0
    outer loop
      vertex 23.4832 -0.533719 10
      vertex 23.5 0 0
      vertex 23.5 0 10
    endloop
  endfacet
  facet normal 0.999507 -0.0314116 0
    outer loop
      vertex 23.5 0 0
      vertex 23.4832 -0.533719 10
      vertex 23.4832 -0.533719 0
    endloop
  endfacet
  facet normal 0.75011 -0.661313 0
    outer loop
      vertex 21.1962 -5.81865 10
      vertex 21.5494 -5.4181 0
      vertex 21.5494 -5.4181 10
    endloop
  endfacet
  facet normal 0.75011 -0.661313 0
    outer loop
      vertex 21.5494 -5.4181 0
      vertex 21.1962 -5.81865 10
      vertex 21.1962 -5.81865 0
    endloop
  endfacet
  facet normal 0.987688 0.156436 0
    outer loop
      vertex 23.433 1.06533 10
      vertex 23.3494 1.59274 0
      vertex 23.3494 1.59274 10
    endloop
  endfacet
  facet normal 0.987688 0.156436 0
    outer loop
      vertex 23.3494 1.59274 0
      vertex 23.433 1.06533 10
      vertex 23.433 1.06533 0
    endloop
  endfacet
  facet normal 0.975916 0.218145 0
    outer loop
      vertex 23.3494 1.59274 10
      vertex 23.233 2.11386 0
      vertex 23.233 2.11386 10
    endloop
  endfacet
  facet normal 0.975916 0.218145 0
    outer loop
      vertex 23.233 2.11386 0
      vertex 23.3494 1.59274 10
      vertex 23.3494 1.59274 0
    endloop
  endfacet
  facet normal 0.827081 0.562083 0
    outer loop
      vertex 22.1768 4.55453 10
      vertex 21.8766 4.99617 0
      vertex 21.8766 4.99617 10
    endloop
  endfacet
  facet normal 0.827081 0.562083 0
    outer loop
      vertex 21.8766 4.99617 0
      vertex 22.1768 4.55453 10
      vertex 22.1768 4.55453 0
    endloop
  endfacet
  facet normal 0.707107 0.707107 0
    outer loop
      vertex 21.1962 5.81865 10
      vertex 20.8186 6.19623 0
      vertex 20.8186 6.19623 10
    endloop
  endfacet
  facet normal 0.707107 0.707107 0
    outer loop
      vertex 20.8186 6.19623 0
      vertex 21.1962 5.81865 10
      vertex 21.1962 5.81865 0
    endloop
  endfacet
  facet normal 0.562083 0.827081 -0
    outer loop
      vertex 19.9962 6.87664 0
      vertex 19.5545 7.17679 10
      vertex 19.9962 6.87664 10
    endloop
  endfacet
  facet normal 0.562083 0.827081 0
    outer loop
      vertex 19.5545 7.17679 10
      vertex 19.9962 6.87664 0
      vertex 19.5545 7.17679 0
    endloop
  endfacet
  facet normal 0.509042 0.860741 -0
    outer loop
      vertex 19.5545 7.17679 0
      vertex 19.0949 7.44861 10
      vertex 19.5545 7.17679 10
    endloop
  endfacet
  facet normal 0.509042 0.860741 0
    outer loop
      vertex 19.0949 7.44861 10
      vertex 19.5545 7.17679 0
      vertex 19.0949 7.44861 0
    endloop
  endfacet
  facet normal 0.338737 0.940881 -0
    outer loop
      vertex 18.1291 7.9031 0
      vertex 17.6266 8.08398 10
      vertex 18.1291 7.9031 10
    endloop
  endfacet
  facet normal 0.338737 0.940881 0
    outer loop
      vertex 17.6266 8.08398 10
      vertex 18.1291 7.9031 0
      vertex 17.6266 8.08398 0
    endloop
  endfacet
  facet normal 0.218144 0.975917 -0
    outer loop
      vertex 17.1139 8.23296 0
      vertex 16.5927 8.34944 10
      vertex 17.1139 8.23296 10
    endloop
  endfacet
  facet normal 0.218144 0.975917 0
    outer loop
      vertex 16.5927 8.34944 10
      vertex 17.1139 8.23296 0
      vertex 16.5927 8.34944 0
    endloop
  endfacet
  facet normal 0.156434 -0.987688 0
    outer loop
      vertex 16.0653 -8.43297 0
      vertex 16.5927 -8.34944 10
      vertex 16.0653 -8.43297 10
    endloop
  endfacet
  facet normal 0.156434 -0.987688 0
    outer loop
      vertex 16.5927 -8.34944 10
      vertex 16.0653 -8.43297 0
      vertex 16.5927 -8.34944 0
    endloop
  endfacet
  facet normal 0.94088 -0.33874 0
    outer loop
      vertex 22.9031 -3.12906 10
      vertex 23.084 -2.62664 0
      vertex 23.084 -2.62664 10
    endloop
  endfacet
  facet normal 0.94088 -0.33874 0
    outer loop
      vertex 23.084 -2.62664 0
      vertex 22.9031 -3.12906 10
      vertex 22.9031 -3.12906 0
    endloop
  endfacet
  facet normal 0.860741 -0.509042 0
    outer loop
      vertex 22.1768 -4.55453 10
      vertex 22.4486 -4.09491 0
      vertex 22.4486 -4.09491 10
    endloop
  endfacet
  facet normal 0.860741 -0.509042 0
    outer loop
      vertex 22.4486 -4.09491 0
      vertex 22.1768 -4.55453 10
      vertex 22.1768 -4.55453 0
    endloop
  endfacet
  facet normal 0.995562 0.094106 0
    outer loop
      vertex 23.4832 0.533719 10
      vertex 23.433 1.06533 0
      vertex 23.433 1.06533 10
    endloop
  endfacet
  facet normal 0.995562 0.094106 0
    outer loop
      vertex 23.433 1.06533 0
      vertex 23.4832 0.533719 10
      vertex 23.4832 0.533719 0
    endloop
  endfacet
  facet normal 0.94088 0.33874 0
    outer loop
      vertex 23.084 2.62664 10
      vertex 22.9031 3.12906 0
      vertex 22.9031 3.12906 10
    endloop
  endfacet
  facet normal 0.94088 0.33874 0
    outer loop
      vertex 22.9031 3.12906 0
      vertex 23.084 2.62664 10
      vertex 23.084 2.62664 0
    endloop
  endfacet
  facet normal 0.960294 0.278989 0
    outer loop
      vertex 23.233 2.11386 10
      vertex 23.084 2.62664 0
      vertex 23.084 2.62664 10
    endloop
  endfacet
  facet normal 0.960294 0.278989 0
    outer loop
      vertex 23.084 2.62664 0
      vertex 23.233 2.11386 10
      vertex 23.233 2.11386 0
    endloop
  endfacet
  facet normal 0.860741 0.509042 0
    outer loop
      vertex 22.4486 4.09491 10
      vertex 22.1768 4.55453 0
      vertex 22.1768 4.55453 10
    endloop
  endfacet
  facet normal 0.860741 0.509042 0
    outer loop
      vertex 22.1768 4.55453 0
      vertex 22.4486 4.09491 10
      vertex 22.4486 4.09491 0
    endloop
  endfacet
  facet normal 0.75011 0.661313 0
    outer loop
      vertex 21.5494 5.4181 10
      vertex 21.1962 5.81865 0
      vertex 21.1962 5.81865 10
    endloop
  endfacet
  facet normal 0.75011 0.661313 0
    outer loop
      vertex 21.1962 5.81865 0
      vertex 21.5494 5.4181 10
      vertex 21.5494 5.4181 0
    endloop
  endfacet
  facet normal 0.790155 0.612907 0
    outer loop
      vertex 21.8766 4.99617 10
      vertex 21.5494 5.4181 0
      vertex 21.5494 5.4181 10
    endloop
  endfacet
  facet normal 0.790155 0.612907 0
    outer loop
      vertex 21.5494 5.4181 0
      vertex 21.8766 4.99617 10
      vertex 21.8766 4.99617 0
    endloop
  endfacet
  facet normal 0.612908 0.790154 -0
    outer loop
      vertex 20.4181 6.54936 0
      vertex 19.9962 6.87664 10
      vertex 20.4181 6.54936 10
    endloop
  endfacet
  facet normal 0.612908 0.790154 0
    outer loop
      vertex 19.9962 6.87664 10
      vertex 20.4181 6.54936 0
      vertex 19.9962 6.87664 0
    endloop
  endfacet
  facet normal 0.0314116 0.999507 -0
    outer loop
      vertex 15.5337 8.48323 0
      vertex 15 8.5 10
      vertex 15.5337 8.48323 10
    endloop
  endfacet
  facet normal 0.0314116 0.999507 0
    outer loop
      vertex 15 8.5 10
      vertex 15.5337 8.48323 0
      vertex 15 8.5 0
    endloop
  endfacet
  facet normal 0.45399 0.891007 -0
    outer loop
      vertex 19.0949 7.44861 0
      vertex 18.6191 7.69103 10
      vertex 19.0949 7.44861 10
    endloop
  endfacet
  facet normal 0.45399 0.891007 0
    outer loop
      vertex 18.6191 7.69103 10
      vertex 19.0949 7.44861 0
      vertex 18.6191 7.69103 0
    endloop
  endfacet
  facet normal 0.278991 0.960294 -0
    outer loop
      vertex 17.6266 8.08398 0
      vertex 17.1139 8.23296 10
      vertex 17.6266 8.08398 10
    endloop
  endfacet
  facet normal 0.278991 0.960294 0
    outer loop
      vertex 17.1139 8.23296 10
      vertex 17.6266 8.08398 0
      vertex 17.1139 8.23296 0
    endloop
  endfacet
  facet normal 0.999507 0.0314116 0
    outer loop
      vertex 23.5 0 10
      vertex 23.4832 0.533719 0
      vertex 23.4832 0.533719 10
    endloop
  endfacet
  facet normal 0.999507 0.0314116 0
    outer loop
      vertex 23.4832 0.533719 0
      vertex 23.5 0 10
      vertex 23.5 0 0
    endloop
  endfacet
  facet normal 0.987688 -0.156436 0
    outer loop
      vertex 23.3494 -1.59274 10
      vertex 23.433 -1.06533 0
      vertex 23.433 -1.06533 10
    endloop
  endfacet
  facet normal 0.987688 -0.156436 0
    outer loop
      vertex 23.433 -1.06533 0
      vertex 23.3494 -1.59274 10
      vertex 23.3494 -1.59274 0
    endloop
  endfacet
  facet normal 0.0314116 -0.999507 0
    outer loop
      vertex 15 -8.5 0
      vertex 15.5337 -8.48323 10
      vertex 15 -8.5 10
    endloop
  endfacet
  facet normal 0.0314116 -0.999507 0
    outer loop
      vertex 15.5337 -8.48323 10
      vertex 15 -8.5 0
      vertex 15.5337 -8.48323 0
    endloop
  endfacet
  facet normal 0.0941078 -0.995562 0
    outer loop
      vertex 15.5337 -8.48323 0
      vertex 16.0653 -8.43297 10
      vertex 15.5337 -8.48323 10
    endloop
  endfacet
  facet normal 0.0941078 -0.995562 0
    outer loop
      vertex 16.0653 -8.43297 10
      vertex 15.5337 -8.48323 0
      vertex 16.0653 -8.43297 0
    endloop
  endfacet
  facet normal 0.338737 -0.940881 0
    outer loop
      vertex 17.6266 -8.08398 0
      vertex 18.1291 -7.9031 10
      vertex 17.6266 -8.08398 10
    endloop
  endfacet
  facet normal 0.338737 -0.940881 0
    outer loop
      vertex 18.1291 -7.9031 10
      vertex 17.6266 -8.08398 0
      vertex 18.1291 -7.9031 0
    endloop
  endfacet
  facet normal 0.218144 -0.975917 0
    outer loop
      vertex 16.5927 -8.34944 0
      vertex 17.1139 -8.23296 10
      vertex 16.5927 -8.34944 10
    endloop
  endfacet
  facet normal 0.218144 -0.975917 0
    outer loop
      vertex 17.1139 -8.23296 10
      vertex 16.5927 -8.34944 0
      vertex 17.1139 -8.23296 0
    endloop
  endfacet
  facet normal 0.661312 -0.750111 0
    outer loop
      vertex 20.4181 -6.54936 0
      vertex 20.8186 -6.19623 10
      vertex 20.4181 -6.54936 10
    endloop
  endfacet
  facet normal 0.661312 -0.750111 0
    outer loop
      vertex 20.8186 -6.19623 10
      vertex 20.4181 -6.54936 0
      vertex 20.8186 -6.19623 0
    endloop
  endfacet
  facet normal 0.612908 -0.790154 0
    outer loop
      vertex 19.9962 -6.87664 0
      vertex 20.4181 -6.54936 10
      vertex 19.9962 -6.87664 10
    endloop
  endfacet
  facet normal 0.612908 -0.790154 0
    outer loop
      vertex 20.4181 -6.54936 10
      vertex 19.9962 -6.87664 0
      vertex 20.4181 -6.54936 0
    endloop
  endfacet
  facet normal 0.707107 -0.707107 0
    outer loop
      vertex 20.8186 -6.19623 10
      vertex 21.1962 -5.81865 0
      vertex 21.1962 -5.81865 10
    endloop
  endfacet
  facet normal 0.707107 -0.707107 0
    outer loop
      vertex 21.1962 -5.81865 0
      vertex 20.8186 -6.19623 10
      vertex 20.8186 -6.19623 0
    endloop
  endfacet
  facet normal 0.509042 -0.860741 0
    outer loop
      vertex 19.0949 -7.44861 0
      vertex 19.5545 -7.17679 10
      vertex 19.0949 -7.44861 10
    endloop
  endfacet
  facet normal 0.509042 -0.860741 0
    outer loop
      vertex 19.5545 -7.17679 10
      vertex 19.0949 -7.44861 0
      vertex 19.5545 -7.17679 0
    endloop
  endfacet
  facet normal 0.562083 -0.827081 0
    outer loop
      vertex 19.5545 -7.17679 0
      vertex 19.9962 -6.87664 10
      vertex 19.5545 -7.17679 10
    endloop
  endfacet
  facet normal 0.562083 -0.827081 0
    outer loop
      vertex 19.9962 -6.87664 10
      vertex 19.5545 -7.17679 0
      vertex 19.9962 -6.87664 0
    endloop
  endfacet
  facet normal 0.397149 -0.917754 0
    outer loop
      vertex 18.1291 -7.9031 0
      vertex 18.6191 -7.69103 10
      vertex 18.1291 -7.9031 10
    endloop
  endfacet
  facet normal 0.397149 -0.917754 0
    outer loop
      vertex 18.6191 -7.69103 10
      vertex 18.1291 -7.9031 0
      vertex 18.6191 -7.69103 0
    endloop
  endfacet
  facet normal 0.891007 -0.453989 0
    outer loop
      vertex 22.4486 -4.09491 10
      vertex 22.691 -3.61912 0
      vertex 22.691 -3.61912 10
    endloop
  endfacet
  facet normal 0.891007 -0.453989 0
    outer loop
      vertex 22.691 -3.61912 0
      vertex 22.4486 -4.09491 10
      vertex 22.4486 -4.09491 0
    endloop
  endfacet
  facet normal 0.827081 -0.562083 0
    outer loop
      vertex 21.8766 -4.99617 10
      vertex 22.1768 -4.55453 0
      vertex 22.1768 -4.55453 10
    endloop
  endfacet
  facet normal 0.827081 -0.562083 0
    outer loop
      vertex 22.1768 -4.55453 0
      vertex 21.8766 -4.99617 10
      vertex 21.8766 -4.99617 0
    endloop
  endfacet
  facet normal 0 0 -1
    outer loop
      vertex 2 3.5 0
      vertex 1 4.5 0
      vertex 2 4.5 0
    endloop
  endfacet
  facet normal -0 0 -1
    outer loop
      vertex 1 4.5 0
      vertex 0 3.5 0
      vertex 1 7.5 0
    endloop
  endfacet
  facet normal 0 0 -1
    outer loop
      vertex 0 3.5 0
      vertex 1 4.5 0
      vertex 2 3.5 0
    endloop
  endfacet
  facet normal 0 0 -1
    outer loop
      vertex 22.5 0 0
      vertex 23.5 0 0
      vertex 23.4832 -0.533719 0
    endloop
  endfacet
  facet normal 0 0 -1
    outer loop
      vertex 22.4852 -0.470928 0
      vertex 23.4832 -0.533719 0
      vertex 23.433 -1.06533 0
    endloop
  endfacet
  facet normal 0 0 -1
    outer loop
      vertex 23.5 0 0
      vertex 22.5 0 0
      vertex 23.4832 0.533719 0
    endloop
  endfacet
  facet normal 0 0 -1
    outer loop
      vertex 22.4409 -0.939999 0
      vertex 23.433 -1.06533 0
      vertex 23.3494 -1.59274 0
    endloop
  endfacet
  facet normal 0 0 -1
    outer loop
      vertex 22.4852 0.470928 0
      vertex 23.4832 0.533719 0
      vertex 22.5 0 0
    endloop
  endfacet
  facet normal 0 0 -1
    outer loop
      vertex 22.3672 -1.40536 0
      vertex 23.3494 -1.59274 0
      vertex 23.233 -2.11386 0
    endloop
  endfacet
  facet normal -0 0 -1
    outer loop
      vertex 23.4832 0.533719 0
      vertex 22.4852 0.470928 0
      vertex 23.433 1.06533 0
    endloop
  endfacet
  facet normal 0 0 -1
    outer loop
      vertex 22.2644 -1.86517 0
      vertex 23.233 -2.11386 0
      vertex 23.084 -2.62664 0
    endloop
  endfacet
  facet normal 0 0 -1
    outer loop
      vertex 22.4409 0.939999 0
      vertex 23.433 1.06533 0
      vertex 22.4852 0.470928 0
    endloop
  endfacet
  facet normal 0 0 -1
    outer loop
      vertex 22.1329 -2.31763 0
      vertex 23.084 -2.62664 0
      vertex 22.9031 -3.12906 0
    endloop
  endfacet
  facet normal -0 0 -1
    outer loop
      vertex 23.433 1.06533 0
      vertex 22.4409 0.939999 0
      vertex 23.3494 1.59274 0
    endloop
  endfacet
  facet normal 0 0 -1
    outer loop
      vertex 21.9733 -2.76093 0
      vertex 22.9031 -3.12906 0
      vertex 22.691 -3.61912 0
    endloop
  endfacet
  facet normal 0 0 -1
    outer loop
      vertex 22.3672 1.40536 0
      vertex 23.3494 1.59274 0
      vertex 22.4409 0.939999 0
    endloop
  endfacet
  facet normal -0 0 -1
    outer loop
      vertex 23.3494 1.59274 0
      vertex 22.3672 1.40536 0
      vertex 23.233 2.11386 0
    endloop
  endfacet
  facet normal 0 0 -1
    outer loop
      vertex 23.4832 -0.533719 0
      vertex 22.4852 -0.470928 0
      vertex 22.5 0 0
    endloop
  endfacet
  facet normal 0 0 -1
    outer loop
      vertex 21.7862 -3.19334 0
      vertex 22.691 -3.61912 0
      vertex 22.4486 -4.09491 0
    endloop
  endfacet
  facet normal 0 0 -1
    outer loop
      vertex 23.433 -1.06533 0
      vertex 22.4409 -0.939999 0
      vertex 22.4852 -0.470928 0
    endloop
  endfacet
  facet normal 0 0 -1
    outer loop
      vertex 23.3494 -1.59274 0
      vertex 22.3672 -1.40536 0
      vertex 22.4409 -0.939999 0
    endloop
  endfacet
  facet normal 0 0 -1
    outer loop
      vertex 23.233 -2.11386 0
      vertex 22.2644 -1.86517 0
      vertex 22.3672 -1.40536 0
    endloop
  endfacet
  facet normal 0 0 -1
    outer loop
      vertex 21.5723 -3.61315 0
      vertex 22.4486 -4.09491 0
      vertex 22.1768 -4.55453 0
    endloop
  endfacet
  facet normal 0 0 -1
    outer loop
      vertex 23.084 -2.62664 0
      vertex 22.1329 -2.31763 0
      vertex 22.2644 -1.86517 0
    endloop
  endfacet
  facet normal 0 0 -1
    outer loop
      vertex 22.9031 -3.12906 0
      vertex 21.9733 -2.76093 0
      vertex 22.1329 -2.31763 0
    endloop
  endfacet
  facet normal 0 0 -1
    outer loop
      vertex 21.3325 -4.0187 0
      vertex 22.1768 -4.55453 0
      vertex 21.8766 -4.99617 0
    endloop
  endfacet
  facet normal 0 0 -1
    outer loop
      vertex 22.691 -3.61912 0
      vertex 21.7862 -3.19334 0
      vertex 21.9733 -2.76093 0
    endloop
  endfacet
  facet normal 0 0 -1
    outer loop
      vertex 22.4486 -4.09491 0
      vertex 21.5723 -3.61315 0
      vertex 21.7862 -3.19334 0
    endloop
  endfacet
  facet normal 0 0 -1
    outer loop
      vertex 21.0676 -4.40839 0
      vertex 21.8766 -4.99617 0
      vertex 21.5494 -5.4181 0
    endloop
  endfacet
  facet normal 0 0 -1
    outer loop
      vertex 22.1768 -4.55453 0
      vertex 21.3325 -4.0187 0
      vertex 21.5723 -3.61315 0
    endloop
  endfacet
  facet normal 0 0 -1
    outer loop
      vertex 20.7788 -4.78068 0
      vertex 21.5494 -5.4181 0
      vertex 21.1962 -5.81865 0
    endloop
  endfacet
  facet normal 0 0 -1
    outer loop
      vertex 21.8766 -4.99617 0
      vertex 21.0676 -4.40839 0
      vertex 21.3325 -4.0187 0
    endloop
  endfacet
  facet normal 0 0 -1
    outer loop
      vertex 20.4673 -5.1341 0
      vertex 21.1962 -5.81865 0
      vertex 20.8186 -6.19623 0
    endloop
  endfacet
  facet normal 0 0 -1
    outer loop
      vertex 21.5494 -5.4181 0
      vertex 20.7788 -4.78068 0
      vertex 21.0676 -4.40839 0
    endloop
  endfacet
  facet normal 0 0 -1
    outer loop
      vertex 21.1962 -5.81865 0
      vertex 20.4673 -5.1341 0
      vertex 20.7788 -4.78068 0
    endloop
  endfacet
  facet normal 0 0 -1
    outer loop
      vertex 20.1341 -5.46726 0
      vertex 20.8186 -6.19623 0
      vertex 20.4181 -6.54936 0
    endloop
  endfacet
  facet normal 0 0 -1
    outer loop
      vertex 20.8186 -6.19623 0
      vertex 20.1341 -5.46726 0
      vertex 20.4673 -5.1341 0
    endloop
  endfacet
  facet normal 0 0 -1
    outer loop
      vertex 19.7807 -5.77885 0
      vertex 20.4181 -6.54936 0
      vertex 19.9962 -6.87664 0
    endloop
  endfacet
  facet normal 0 0 -1
    outer loop
      vertex 20.4181 -6.54936 0
      vertex 19.7807 -5.77885 0
      vertex 20.1341 -5.46726 0
    endloop
  endfacet
  facet normal 0 0 -1
    outer loop
      vertex 19.4084 -6.06763 0
      vertex 19.9962 -6.87664 0
      vertex 19.5545 -7.17679 0
    endloop
  endfacet
  facet normal 0 0 -1
    outer loop
      vertex 19.9962 -6.87664 0
      vertex 19.4084 -6.06763 0
      vertex 19.7807 -5.77885 0
    endloop
  endfacet
  facet normal 0 0 -1
    outer loop
      vertex 19.0187 -6.33246 0
      vertex 19.5545 -7.17679 0
      vertex 19.0949 -7.44861 0
    endloop
  endfacet
  facet normal 0 0 -1
    outer loop
      vertex 19.5545 -7.17679 0
      vertex 19.0187 -6.33246 0
      vertex 19.4084 -6.06763 0
    endloop
  endfacet
  facet normal 0 0 -1
    outer loop
      vertex 18.6132 -6.5723 0
      vertex 19.0949 -7.44861 0
      vertex 18.6191 -7.69103 0
    endloop
  endfacet
  facet normal 0 0 -1
    outer loop
      vertex 19.0949 -7.44861 0
      vertex 18.6132 -6.5723 0
      vertex 19.0187 -6.33246 0
    endloop
  endfacet
  facet normal 0 0 -1
    outer loop
      vertex 18.6191 -7.69103 0
      vertex 18.1933 -6.7862 0
      vertex 18.6132 -6.5723 0
    endloop
  endfacet
  facet normal 0 0 -1
    outer loop
      vertex 18.1291 -7.9031 0
      vertex 18.1933 -6.7862 0
      vertex 18.6191 -7.69103 0
    endloop
  endfacet
  facet normal 0 0 -1
    outer loop
      vertex 18.1291 -7.9031 0
      vertex 17.7609 -6.97332 0
      vertex 18.1933 -6.7862 0
    endloop
  endfacet
  facet normal 0 0 -1
    outer loop
      vertex 17.6266 -8.08398 0
      vertex 17.7609 -6.97332 0
      vertex 18.1291 -7.9031 0
    endloop
  endfacet
  facet normal 0 0 -1
    outer loop
      vertex 17.6266 -8.08398 0
      vertex 17.3176 -7.13292 0
      vertex 17.7609 -6.97332 0
    endloop
  endfacet
  facet normal 0 0 -1
    outer loop
      vertex 17.1139 -8.23296 0
      vertex 17.3176 -7.13292 0
      vertex 17.6266 -8.08398 0
    endloop
  endfacet
  facet normal 0 0 -1
    outer loop
      vertex 17.1139 -8.23296 0
      vertex 16.8652 -7.26437 0
      vertex 17.3176 -7.13292 0
    endloop
  endfacet
  facet normal 0 0 -1
    outer loop
      vertex 16.5927 -8.34944 0
      vertex 16.8652 -7.26437 0
      vertex 17.1139 -8.23296 0
    endloop
  endfacet
  facet normal 0 0 -1
    outer loop
      vertex 16.5927 -8.34944 0
      vertex 16.4054 -7.36715 0
      vertex 16.8652 -7.26437 0
    endloop
  endfacet
  facet normal 0 0 -1
    outer loop
      vertex 16.0653 -8.43297 0
      vertex 16.4054 -7.36715 0
      vertex 16.5927 -8.34944 0
    endloop
  endfacet
  facet normal 0 0 -1
    outer loop
      vertex 16.0653 -8.43297 0
      vertex 15.94 -7.44086 0
      vertex 16.4054 -7.36715 0
    endloop
  endfacet
  facet normal 0 0 -1
    outer loop
      vertex 15.5337 -8.48323 0
      vertex 15.94 -7.44086 0
      vertex 16.0653 -8.43297 0
    endloop
  endfacet
  facet normal 0 0 -1
    outer loop
      vertex 15.5337 -8.48323 0
      vertex 15.4709 -7.4852 0
      vertex 15.94 -7.44086 0
    endloop
  endfacet
  facet normal 0 0 -1
    outer loop
      vertex 15 -8.5 0
      vertex 15.4709 -7.4852 0
      vertex 15.5337 -8.48323 0
    endloop
  endfacet
  facet normal 0 0 -1
    outer loop
      vertex 15 -8.5 0
      vertex 15 -7.5 0
      vertex 15.4709 -7.4852 0
    endloop
  endfacet
  facet normal 0 0 -1
    outer loop
      vertex 15 -8.5 0
      vertex 1 -7.5 0
      vertex 15 -7.5 0
    endloop
  endfacet
  facet normal -0 0 -1
    outer loop
      vertex 1 -7.5 0
      vertex 0 -8.5 0
      vertex 1 -4.5 0
    endloop
  endfacet
  facet normal 0 0 -1
    outer loop
      vertex 0 -8.5 0
      vertex 1 -7.5 0
      vertex 15 -8.5 0
    endloop
  endfacet
  facet normal 0 0 -1
    outer loop
      vertex 22.2644 1.86517 0
      vertex 23.233 2.11386 0
      vertex 22.3672 1.40536 0
    endloop
  endfacet
  facet normal -0 0 -1
    outer loop
      vertex 23.233 2.11386 0
      vertex 22.2644 1.86517 0
      vertex 23.084 2.62664 0
    endloop
  endfacet
  facet normal 0 0 -1
    outer loop
      vertex 22.1329 2.31763 0
      vertex 23.084 2.62664 0
      vertex 22.2644 1.86517 0
    endloop
  endfacet
  facet normal -0 0 -1
    outer loop
      vertex 23.084 2.62664 0
      vertex 22.1329 2.31763 0
      vertex 22.9031 3.12906 0
    endloop
  endfacet
  facet normal 0 0 -1
    outer loop
      vertex 21.9733 2.76093 0
      vertex 22.9031 3.12906 0
      vertex 22.1329 2.31763 0
    endloop
  endfacet
  facet normal -0 0 -1
    outer loop
      vertex 22.9031 3.12906 0
      vertex 21.9733 2.76093 0
      vertex 22.691 3.61912 0
    endloop
  endfacet
  facet normal 0 0 -1
    outer loop
      vertex 21.7862 3.19334 0
      vertex 22.691 3.61912 0
      vertex 21.9733 2.76093 0
    endloop
  endfacet
  facet normal -0 0 -1
    outer loop
      vertex 22.691 3.61912 0
      vertex 21.7862 3.19334 0
      vertex 22.4486 4.09491 0
    endloop
  endfacet
  facet normal 0 0 -1
    outer loop
      vertex 21.5723 3.61315 0
      vertex 22.4486 4.09491 0
      vertex 21.7862 3.19334 0
    endloop
  endfacet
  facet normal -0 0 -1
    outer loop
      vertex 22.4486 4.09491 0
      vertex 21.5723 3.61315 0
      vertex 22.1768 4.55453 0
    endloop
  endfacet
  facet normal 0 0 -1
    outer loop
      vertex 21.3325 4.0187 0
      vertex 22.1768 4.55453 0
      vertex 21.5723 3.61315 0
    endloop
  endfacet
  facet normal -0 0 -1
    outer loop
      vertex 22.1768 4.55453 0
      vertex 21.3325 4.0187 0
      vertex 21.8766 4.99617 0
    endloop
  endfacet
  facet normal 0 0 -1
    outer loop
      vertex 21.0676 4.40839 0
      vertex 21.8766 4.99617 0
      vertex 21.3325 4.0187 0
    endloop
  endfacet
  facet normal -0 0 -1
    outer loop
      vertex 21.8766 4.99617 0
      vertex 21.0676 4.40839 0
      vertex 21.5494 5.4181 0
    endloop
  endfacet
  facet normal 0 0 -1
    outer loop
      vertex 20.7788 4.78068 0
      vertex 21.5494 5.4181 0
      vertex 21.0676 4.40839 0
    endloop
  endfacet
  facet normal -0 0 -1
    outer loop
      vertex 21.5494 5.4181 0
      vertex 20.7788 4.78068 0
      vertex 21.1962 5.81865 0
    endloop
  endfacet
  facet normal 0 0 -1
    outer loop
      vertex 20.4673 5.1341 0
      vertex 21.1962 5.81865 0
      vertex 20.7788 4.78068 0
    endloop
  endfacet
  facet normal -0 0 -1
    outer loop
      vertex 21.1962 5.81865 0
      vertex 20.4673 5.1341 0
      vertex 20.8186 6.19623 0
    endloop
  endfacet
  facet normal 0 0 -1
    outer loop
      vertex 20.1341 5.46726 0
      vertex 20.8186 6.19623 0
      vertex 20.4673 5.1341 0
    endloop
  endfacet
  facet normal -0 0 -1
    outer loop
      vertex 20.8186 6.19623 0
      vertex 20.1341 5.46726 0
      vertex 20.4181 6.54936 0
    endloop
  endfacet
  facet normal 0 0 -1
    outer loop
      vertex 19.7807 5.77885 0
      vertex 20.4181 6.54936 0
      vertex 20.1341 5.46726 0
    endloop
  endfacet
  facet normal -0 0 -1
    outer loop
      vertex 20.4181 6.54936 0
      vertex 19.7807 5.77885 0
      vertex 19.9962 6.87664 0
    endloop
  endfacet
  facet normal 0 0 -1
    outer loop
      vertex 19.4084 6.06763 0
      vertex 19.9962 6.87664 0
      vertex 19.7807 5.77885 0
    endloop
  endfacet
  facet normal -0 0 -1
    outer loop
      vertex 19.9962 6.87664 0
      vertex 19.4084 6.06763 0
      vertex 19.5545 7.17679 0
    endloop
  endfacet
  facet normal 0 0 -1
    outer loop
      vertex 19.0187 6.33246 0
      vertex 19.5545 7.17679 0
      vertex 19.4084 6.06763 0
    endloop
  endfacet
  facet normal -0 0 -1
    outer loop
      vertex 19.5545 7.17679 0
      vertex 19.0187 6.33246 0
      vertex 19.0949 7.44861 0
    endloop
  endfacet
  facet normal 0 0 -1
    outer loop
      vertex 18.6132 6.5723 0
      vertex 19.0949 7.44861 0
      vertex 19.0187 6.33246 0
    endloop
  endfacet
  facet normal -0 0 -1
    outer loop
      vertex 19.0949 7.44861 0
      vertex 18.6132 6.5723 0
      vertex 18.6191 7.69103 0
    endloop
  endfacet
  facet normal 0 0 -1
    outer loop
      vertex 18.1933 6.7862 0
      vertex 18.6191 7.69103 0
      vertex 18.6132 6.5723 0
    endloop
  endfacet
  facet normal 0 0 -1
    outer loop
      vertex 18.1933 6.7862 0
      vertex 18.1291 7.9031 0
      vertex 18.6191 7.69103 0
    endloop
  endfacet
  facet normal 0 0 -1
    outer loop
      vertex 17.7609 6.97332 0
      vertex 18.1291 7.9031 0
      vertex 18.1933 6.7862 0
    endloop
  endfacet
  facet normal 0 0 -1
    outer loop
      vertex 17.7609 6.97332 0
      vertex 17.6266 8.08398 0
      vertex 18.1291 7.9031 0
    endloop
  endfacet
  facet normal 0 0 -1
    outer loop
      vertex 17.3176 7.13292 0
      vertex 17.6266 8.08398 0
      vertex 17.7609 6.97332 0
    endloop
  endfacet
  facet normal 0 0 -1
    outer loop
      vertex 17.3176 7.13292 0
      vertex 17.1139 8.23296 0
      vertex 17.6266 8.08398 0
    endloop
  endfacet
  facet normal 0 0 -1
    outer loop
      vertex 16.8652 7.26437 0
      vertex 17.1139 8.23296 0
      vertex 17.3176 7.13292 0
    endloop
  endfacet
  facet normal 0 0 -1
    outer loop
      vertex 16.8652 7.26437 0
      vertex 16.5927 8.34944 0
      vertex 17.1139 8.23296 0
    endloop
  endfacet
  facet normal 0 0 -1
    outer loop
      vertex 16.4054 7.36715 0
      vertex 16.5927 8.34944 0
      vertex 16.8652 7.26437 0
    endloop
  endfacet
  facet normal 0 0 -1
    outer loop
      vertex 16.4054 7.36715 0
      vertex 16.0653 8.43297 0
      vertex 16.5927 8.34944 0
    endloop
  endfacet
  facet normal 0 0 -1
    outer loop
      vertex 15.94 7.44086 0
      vertex 16.0653 8.43297 0
      vertex 16.4054 7.36715 0
    endloop
  endfacet
  facet normal 0 0 -1
    outer loop
      vertex 15.94 7.44086 0
      vertex 15.5337 8.48323 0
      vertex 16.0653 8.43297 0
    endloop
  endfacet
  facet normal 0 0 -1
    outer loop
      vertex 15.4709 7.4852 0
      vertex 15.5337 8.48323 0
      vertex 15.94 7.44086 0
    endloop
  endfacet
  facet normal 0 0 -1
    outer loop
      vertex 15 7.5 0
      vertex 15.5337 8.48323 0
      vertex 15.4709 7.4852 0
    endloop
  endfacet
  facet normal 0 0 -1
    outer loop
      vertex 15 7.5 0
      vertex 15 8.5 0
      vertex 15.5337 8.48323 0
    endloop
  endfacet
  facet normal 0 0 -1
    outer loop
      vertex 1 7.5 0
      vertex 15 8.5 0
      vertex 15 7.5 0
    endloop
  endfacet
  facet normal 0 0 -1
    outer loop
      vertex 1 7.5 0
      vertex 0 8.5 0
      vertex 15 8.5 0
    endloop
  endfacet
  facet normal 0 0 -1
    outer loop
      vertex 0 8.5 0
      vertex 1 7.5 0
      vertex 0 3.5 0
    endloop
  endfacet
  facet normal 0 0 -1
    outer loop
      vertex 1 -4.5 0
      vertex 2 -3.5 0
      vertex 2 -4.5 0
    endloop
  endfacet
  facet normal 0 0 -1
    outer loop
      vertex 1 -4.5 0
      vertex 0 -3.5 0
      vertex 2 -3.5 0
    endloop
  endfacet
  facet normal 0 0 -1
    outer loop
      vertex 0 -3.5 0
      vertex 1 -4.5 0
      vertex 0 -8.5 0
    endloop
  endfacet
  facet normal 0.0941078 0.995562 -0
    outer loop
      vertex 16.0653 8.43297 0
      vertex 15.5337 8.48323 10
      vertex 16.0653 8.43297 10
    endloop
  endfacet
  facet normal 0.0941078 0.995562 0
    outer loop
      vertex 15.5337 8.48323 10
      vertex 16.0653 8.43297 0
      vertex 15.5337 8.48323 0
    endloop
  endfacet
  facet normal 0 0 1
    outer loop
      vertex 2 -3.5 10
      vertex 1 -4.5 10
      vertex 2 -4.5 10
    endloop
  endfacet
  facet normal 0 0 1
    outer loop
      vertex 1 -4.5 10
      vertex 0 -3.5 10
      vertex 1 -7.5 10
    endloop
  endfacet
  facet normal -0 0 1
    outer loop
      vertex 0 -3.5 10
      vertex 1 -4.5 10
      vertex 2 -3.5 10
    endloop
  endfacet
  facet normal 0 0 1
    outer loop
      vertex 22.5 0 10
      vertex 23.5 0 10
      vertex 23.4832 0.533719 10
    endloop
  endfacet
  facet normal 0 0 1
    outer loop
      vertex 22.4852 0.470928 10
      vertex 23.4832 0.533719 10
      vertex 23.433 1.06533 10
    endloop
  endfacet
  facet normal 0 0 1
    outer loop
      vertex 23.5 0 10
      vertex 22.5 0 10
      vertex 23.4832 -0.533719 10
    endloop
  endfacet
  facet normal 0 0 1
    outer loop
      vertex 22.4409 0.939999 10
      vertex 23.433 1.06533 10
      vertex 23.3494 1.59274 10
    endloop
  endfacet
  facet normal -0 0 1
    outer loop
      vertex 22.4852 -0.470928 10
      vertex 23.4832 -0.533719 10
      vertex 22.5 0 10
    endloop
  endfacet
  facet normal 0 0 1
    outer loop
      vertex 22.3672 1.40536 10
      vertex 23.3494 1.59274 10
      vertex 23.233 2.11386 10
    endloop
  endfacet
  facet normal 0 0 1
    outer loop
      vertex 23.4832 -0.533719 10
      vertex 22.4852 -0.470928 10
      vertex 23.433 -1.06533 10
    endloop
  endfacet
  facet normal 0 0 1
    outer loop
      vertex 22.2644 1.86517 10
      vertex 23.233 2.11386 10
      vertex 23.084 2.62664 10
    endloop
  endfacet
  facet normal -0 0 1
    outer loop
      vertex 22.4409 -0.939999 10
      vertex 23.433 -1.06533 10
      vertex 22.4852 -0.470928 10
    endloop
  endfacet
  facet normal 0 0 1
    outer loop
      vertex 22.1329 2.31763 10
      vertex 23.084 2.62664 10
      vertex 22.9031 3.12906 10
    endloop
  endfacet
  facet normal 0 0 1
    outer loop
      vertex 23.433 -1.06533 10
      vertex 22.4409 -0.939999 10
      vertex 23.3494 -1.59274 10
    endloop
  endfacet
  facet normal 0 0 1
    outer loop
      vertex 21.9733 2.76093 10
      vertex 22.9031 3.12906 10
      vertex 22.691 3.61912 10
    endloop
  endfacet
  facet normal -0 0 1
    outer loop
      vertex 22.3672 -1.40536 10
      vertex 23.3494 -1.59274 10
      vertex 22.4409 -0.939999 10
    endloop
  endfacet
  facet normal 0 0 1
    outer loop
      vertex 23.3494 -1.59274 10
      vertex 22.3672 -1.40536 10
      vertex 23.233 -2.11386 10
    endloop
  endfacet
  facet normal 0 0 1
    outer loop
      vertex 23.4832 0.533719 10
      vertex 22.4852 0.470928 10
      vertex 22.5 0 10
    endloop
  endfacet
  facet normal 0 0 1
    outer loop
      vertex 21.7862 3.19334 10
      vertex 22.691 3.61912 10
      vertex 22.4486 4.09491 10
    endloop
  endfacet
  facet normal 0 0 1
    outer loop
      vertex 23.433 1.06533 10
      vertex 22.4409 0.939999 10
      vertex 22.4852 0.470928 10
    endloop
  endfacet
  facet normal 0 0 1
    outer loop
      vertex 23.3494 1.59274 10
      vertex 22.3672 1.40536 10
      vertex 22.4409 0.939999 10
    endloop
  endfacet
  facet normal 0 0 1
    outer loop
      vertex 23.233 2.11386 10
      vertex 22.2644 1.86517 10
      vertex 22.3672 1.40536 10
    endloop
  endfacet
  facet normal 0 0 1
    outer loop
      vertex 21.5723 3.61315 10
      vertex 22.4486 4.09491 10
      vertex 22.1768 4.55453 10
    endloop
  endfacet
  facet normal 0 0 1
    outer loop
      vertex 23.084 2.62664 10
      vertex 22.1329 2.31763 10
      vertex 22.2644 1.86517 10
    endloop
  endfacet
  facet normal 0 0 1
    outer loop
      vertex 22.9031 3.12906 10
      vertex 21.9733 2.76093 10
      vertex 22.1329 2.31763 10
    endloop
  endfacet
  facet normal 0 0 1
    outer loop
      vertex 21.3325 4.0187 10
      vertex 22.1768 4.55453 10
      vertex 21.8766 4.99617 10
    endloop
  endfacet
  facet normal 0 0 1
    outer loop
      vertex 22.691 3.61912 10
      vertex 21.7862 3.19334 10
      vertex 21.9733 2.76093 10
    endloop
  endfacet
  facet normal 0 0 1
    outer loop
      vertex 22.4486 4.09491 10
      vertex 21.5723 3.61315 10
      vertex 21.7862 3.19334 10
    endloop
  endfacet
  facet normal 0 0 1
    outer loop
      vertex 21.0676 4.40839 10
      vertex 21.8766 4.99617 10
      vertex 21.5494 5.4181 10
    endloop
  endfacet
  facet normal 0 0 1
    outer loop
      vertex 22.1768 4.55453 10
      vertex 21.3325 4.0187 10
      vertex 21.5723 3.61315 10
    endloop
  endfacet
  facet normal 0 0 1
    outer loop
      vertex 20.7788 4.78068 10
      vertex 21.5494 5.4181 10
      vertex 21.1962 5.81865 10
    endloop
  endfacet
  facet normal 0 0 1
    outer loop
      vertex 21.8766 4.99617 10
      vertex 21.0676 4.40839 10
      vertex 21.3325 4.0187 10
    endloop
  endfacet
  facet normal 0 0 1
    outer loop
      vertex 20.4673 5.1341 10
      vertex 21.1962 5.81865 10
      vertex 20.8186 6.19623 10
    endloop
  endfacet
  facet normal 0 0 1
    outer loop
      vertex 21.5494 5.4181 10
      vertex 20.7788 4.78068 10
      vertex 21.0676 4.40839 10
    endloop
  endfacet
  facet normal 0 0 1
    outer loop
      vertex 21.1962 5.81865 10
      vertex 20.4673 5.1341 10
      vertex 20.7788 4.78068 10
    endloop
  endfacet
  facet normal 0 0 1
    outer loop
      vertex 20.1341 5.46726 10
      vertex 20.8186 6.19623 10
      vertex 20.4181 6.54936 10
    endloop
  endfacet
  facet normal 0 0 1
    outer loop
      vertex 20.8186 6.19623 10
      vertex 20.1341 5.46726 10
      vertex 20.4673 5.1341 10
    endloop
  endfacet
  facet normal 0 0 1
    outer loop
      vertex 19.7807 5.77885 10
      vertex 20.4181 6.54936 10
      vertex 19.9962 6.87664 10
    endloop
  endfacet
  facet normal 0 0 1
    outer loop
      vertex 20.4181 6.54936 10
      vertex 19.7807 5.77885 10
      vertex 20.1341 5.46726 10
    endloop
  endfacet
  facet normal 0 0 1
    outer loop
      vertex 19.4084 6.06763 10
      vertex 19.9962 6.87664 10
      vertex 19.5545 7.17679 10
    endloop
  endfacet
  facet normal 0 0 1
    outer loop
      vertex 19.9962 6.87664 10
      vertex 19.4084 6.06763 10
      vertex 19.7807 5.77885 10
    endloop
  endfacet
  facet normal 0 0 1
    outer loop
      vertex 19.0187 6.33246 10
      vertex 19.5545 7.17679 10
      vertex 19.0949 7.44861 10
    endloop
  endfacet
  facet normal 0 0 1
    outer loop
      vertex 19.5545 7.17679 10
      vertex 19.0187 6.33246 10
      vertex 19.4084 6.06763 10
    endloop
  endfacet
  facet normal 0 0 1
    outer loop
      vertex 18.6132 6.5723 10
      vertex 19.0949 7.44861 10
      vertex 18.6191 7.69103 10
    endloop
  endfacet
  facet normal 0 0 1
    outer loop
      vertex 19.0949 7.44861 10
      vertex 18.6132 6.5723 10
      vertex 19.0187 6.33246 10
    endloop
  endfacet
  facet normal 0 0 1
    outer loop
      vertex 18.6191 7.69103 10
      vertex 18.1933 6.7862 10
      vertex 18.6132 6.5723 10
    endloop
  endfacet
  facet normal 0 0 1
    outer loop
      vertex 18.1291 7.9031 10
      vertex 18.1933 6.7862 10
      vertex 18.6191 7.69103 10
    endloop
  endfacet
  facet normal 0 0 1
    outer loop
      vertex 18.1291 7.9031 10
      vertex 17.7609 6.97332 10
      vertex 18.1933 6.7862 10
    endloop
  endfacet
  facet normal 0 0 1
    outer loop
      vertex 17.6266 8.08398 10
      vertex 17.7609 6.97332 10
      vertex 18.1291 7.9031 10
    endloop
  endfacet
  facet normal 0 0 1
    outer loop
      vertex 17.6266 8.08398 10
      vertex 17.3176 7.13292 10
      vertex 17.7609 6.97332 10
    endloop
  endfacet
  facet normal 0 0 1
    outer loop
      vertex 17.1139 8.23296 10
      vertex 17.3176 7.13292 10
      vertex 17.6266 8.08398 10
    endloop
  endfacet
  facet normal 0 0 1
    outer loop
      vertex 17.1139 8.23296 10
      vertex 16.8652 7.26437 10
      vertex 17.3176 7.13292 10
    endloop
  endfacet
  facet normal 0 0 1
    outer loop
      vertex 16.5927 8.34944 10
      vertex 16.8652 7.26437 10
      vertex 17.1139 8.23296 10
    endloop
  endfacet
  facet normal 0 0 1
    outer loop
      vertex 16.5927 8.34944 10
      vertex 16.4054 7.36715 10
      vertex 16.8652 7.26437 10
    endloop
  endfacet
  facet normal 0 0 1
    outer loop
      vertex 16.0653 8.43297 10
      vertex 16.4054 7.36715 10
      vertex 16.5927 8.34944 10
    endloop
  endfacet
  facet normal 0 0 1
    outer loop
      vertex 16.0653 8.43297 10
      vertex 15.94 7.44086 10
      vertex 16.4054 7.36715 10
    endloop
  endfacet
  facet normal 0 0 1
    outer loop
      vertex 15.5337 8.48323 10
      vertex 15.94 7.44086 10
      vertex 16.0653 8.43297 10
    endloop
  endfacet
  facet normal 0 0 1
    outer loop
      vertex 15.5337 8.48323 10
      vertex 15.4709 7.4852 10
      vertex 15.94 7.44086 10
    endloop
  endfacet
  facet normal 0 0 1
    outer loop
      vertex 15 8.5 10
      vertex 15.4709 7.4852 10
      vertex 15.5337 8.48323 10
    endloop
  endfacet
  facet normal 0 0 1
    outer loop
      vertex 15 8.5 10
      vertex 15 7.5 10
      vertex 15.4709 7.4852 10
    endloop
  endfacet
  facet normal 0 0 1
    outer loop
      vertex 15 8.5 10
      vertex 1 7.5 10
      vertex 15 7.5 10
    endloop
  endfacet
  facet normal 0 0 1
    outer loop
      vertex 1 7.5 10
      vertex 0 8.5 10
      vertex 1 4.5 10
    endloop
  endfacet
  facet normal -0 0 1
    outer loop
      vertex 0 8.5 10
      vertex 1 7.5 10
      vertex 15 8.5 10
    endloop
  endfacet
  facet normal -0 0 1
    outer loop
      vertex 22.2644 -1.86517 10
      vertex 23.233 -2.11386 10
      vertex 22.3672 -1.40536 10
    endloop
  endfacet
  facet normal 0 0 1
    outer loop
      vertex 23.233 -2.11386 10
      vertex 22.2644 -1.86517 10
      vertex 23.084 -2.62664 10
    endloop
  endfacet
  facet normal -0 0 1
    outer loop
      vertex 22.1329 -2.31763 10
      vertex 23.084 -2.62664 10
      vertex 22.2644 -1.86517 10
    endloop
  endfacet
  facet normal 0 0 1
    outer loop
      vertex 23.084 -2.62664 10
      vertex 22.1329 -2.31763 10
      vertex 22.9031 -3.12906 10
    endloop
  endfacet
  facet normal -0 0 1
    outer loop
      vertex 21.9733 -2.76093 10
      vertex 22.9031 -3.12906 10
      vertex 22.1329 -2.31763 10
    endloop
  endfacet
  facet normal 0 0 1
    outer loop
      vertex 22.9031 -3.12906 10
      vertex 21.9733 -2.76093 10
      vertex 22.691 -3.61912 10
    endloop
  endfacet
  facet normal -0 0 1
    outer loop
      vertex 21.7862 -3.19334 10
      vertex 22.691 -3.61912 10
      vertex 21.9733 -2.76093 10
    endloop
  endfacet
  facet normal 0 0 1
    outer loop
      vertex 22.691 -3.61912 10
      vertex 21.7862 -3.19334 10
      vertex 22.4486 -4.09491 10
    endloop
  endfacet
  facet normal -0 0 1
    outer loop
      vertex 21.5723 -3.61315 10
      vertex 22.4486 -4.09491 10
      vertex 21.7862 -3.19334 10
    endloop
  endfacet
  facet normal 0 0 1
    outer loop
      vertex 22.4486 -4.09491 10
      vertex 21.5723 -3.61315 10
      vertex 22.1768 -4.55453 10
    endloop
  endfacet
  facet normal -0 0 1
    outer loop
      vertex 21.3325 -4.0187 10
      vertex 22.1768 -4.55453 10
      vertex 21.5723 -3.61315 10
    endloop
  endfacet
  facet normal 0 0 1
    outer loop
      vertex 22.1768 -4.55453 10
      vertex 21.3325 -4.0187 10
      vertex 21.8766 -4.99617 10
    endloop
  endfacet
  facet normal -0 0 1
    outer loop
      vertex 21.0676 -4.40839 10
      vertex 21.8766 -4.99617 10
      vertex 21.3325 -4.0187 10
    endloop
  endfacet
  facet normal 0 0 1
    outer loop
      vertex 21.8766 -4.99617 10
      vertex 21.0676 -4.40839 10
      vertex 21.5494 -5.4181 10
    endloop
  endfacet
  facet normal -0 0 1
    outer loop
      vertex 20.7788 -4.78068 10
      vertex 21.5494 -5.4181 10
      vertex 21.0676 -4.40839 10
    endloop
  endfacet
  facet normal 0 0 1
    outer loop
      vertex 21.5494 -5.4181 10
      vertex 20.7788 -4.78068 10
      vertex 21.1962 -5.81865 10
    endloop
  endfacet
  facet normal -0 0 1
    outer loop
      vertex 20.4673 -5.1341 10
      vertex 21.1962 -5.81865 10
      vertex 20.7788 -4.78068 10
    endloop
  endfacet
  facet normal 0 0 1
    outer loop
      vertex 21.1962 -5.81865 10
      vertex 20.4673 -5.1341 10
      vertex 20.8186 -6.19623 10
    endloop
  endfacet
  facet normal -0 0 1
    outer loop
      vertex 20.1341 -5.46726 10
      vertex 20.8186 -6.19623 10
      vertex 20.4673 -5.1341 10
    endloop
  endfacet
  facet normal 0 0 1
    outer loop
      vertex 20.8186 -6.19623 10
      vertex 20.1341 -5.46726 10
      vertex 20.4181 -6.54936 10
    endloop
  endfacet
  facet normal -0 0 1
    outer loop
      vertex 19.7807 -5.77885 10
      vertex 20.4181 -6.54936 10
      vertex 20.1341 -5.46726 10
    endloop
  endfacet
  facet normal 0 0 1
    outer loop
      vertex 20.4181 -6.54936 10
      vertex 19.7807 -5.77885 10
      vertex 19.9962 -6.87664 10
    endloop
  endfacet
  facet normal -0 0 1
    outer loop
      vertex 19.4084 -6.06763 10
      vertex 19.9962 -6.87664 10
      vertex 19.7807 -5.77885 10
    endloop
  endfacet
  facet normal 0 0 1
    outer loop
      vertex 19.9962 -6.87664 10
      vertex 19.4084 -6.06763 10
      vertex 19.5545 -7.17679 10
    endloop
  endfacet
  facet normal -0 0 1
    outer loop
      vertex 19.0187 -6.33246 10
      vertex 19.5545 -7.17679 10
      vertex 19.4084 -6.06763 10
    endloop
  endfacet
  facet normal 0 0 1
    outer loop
      vertex 19.5545 -7.17679 10
      vertex 19.0187 -6.33246 10
      vertex 19.0949 -7.44861 10
    endloop
  endfacet
  facet normal -0 0 1
    outer loop
      vertex 18.6132 -6.5723 10
      vertex 19.0949 -7.44861 10
      vertex 19.0187 -6.33246 10
    endloop
  endfacet
  facet normal 0 0 1
    outer loop
      vertex 19.0949 -7.44861 10
      vertex 18.6132 -6.5723 10
      vertex 18.6191 -7.69103 10
    endloop
  endfacet
  facet normal -0 0 1
    outer loop
      vertex 18.1933 -6.7862 10
      vertex 18.6191 -7.69103 10
      vertex 18.6132 -6.5723 10
    endloop
  endfacet
  facet normal 0 0 1
    outer loop
      vertex 18.1933 -6.7862 10
      vertex 18.1291 -7.9031 10
      vertex 18.6191 -7.69103 10
    endloop
  endfacet
  facet normal -0 0 1
    outer loop
      vertex 17.7609 -6.97332 10
      vertex 18.1291 -7.9031 10
      vertex 18.1933 -6.7862 10
    endloop
  endfacet
  facet normal 0 0 1
    outer loop
      vertex 17.7609 -6.97332 10
      vertex 17.6266 -8.08398 10
      vertex 18.1291 -7.9031 10
    endloop
  endfacet
  facet normal -0 0 1
    outer loop
      vertex 17.3176 -7.13292 10
      vertex 17.6266 -8.08398 10
      vertex 17.7609 -6.97332 10
    endloop
  endfacet
  facet normal 0 0 1
    outer loop
      vertex 17.3176 -7.13292 10
      vertex 17.1139 -8.23296 10
      vertex 17.6266 -8.08398 10
    endloop
  endfacet
  facet normal -0 0 1
    outer loop
      vertex 16.8652 -7.26437 10
      vertex 17.1139 -8.23296 10
      vertex 17.3176 -7.13292 10
    endloop
  endfacet
  facet normal 0 0 1
    outer loop
      vertex 16.8652 -7.26437 10
      vertex 16.5927 -8.34944 10
      vertex 17.1139 -8.23296 10
    endloop
  endfacet
  facet normal -0 0 1
    outer loop
      vertex 16.4054 -7.36715 10
      vertex 16.5927 -8.34944 10
      vertex 16.8652 -7.26437 10
    endloop
  endfacet
  facet normal 0 0 1
    outer loop
      vertex 16.4054 -7.36715 10
      vertex 16.0653 -8.43297 10
      vertex 16.5927 -8.34944 10
    endloop
  endfacet
  facet normal -0 0 1
    outer loop
      vertex 15.94 -7.44086 10
      vertex 16.0653 -8.43297 10
      vertex 16.4054 -7.36715 10
    endloop
  endfacet
  facet normal 0 0 1
    outer loop
      vertex 15.94 -7.44086 10
      vertex 15.5337 -8.48323 10
      vertex 16.0653 -8.43297 10
    endloop
  endfacet
  facet normal -0 0 1
    outer loop
      vertex 15.4709 -7.4852 10
      vertex 15.5337 -8.48323 10
      vertex 15.94 -7.44086 10
    endloop
  endfacet
  facet normal -0 0 1
    outer loop
      vertex 15 -7.5 10
      vertex 15.5337 -8.48323 10
      vertex 15.4709 -7.4852 10
    endloop
  endfacet
  facet normal 0 0 1
    outer loop
      vertex 15 -7.5 10
      vertex 15 -8.5 10
      vertex 15.5337 -8.48323 10
    endloop
  endfacet
  facet normal -0 0 1
    outer loop
      vertex 1 -7.5 10
      vertex 15 -8.5 10
      vertex 15 -7.5 10
    endloop
  endfacet
  facet normal 0 0 1
    outer loop
      vertex 1 -7.5 10
      vertex 0 -8.5 10
      vertex 15 -8.5 10
    endloop
  endfacet
  facet normal 0 0 1
    outer loop
      vertex 0 -8.5 10
      vertex 1 -7.5 10
      vertex 0 -3.5 10
    endloop
  endfacet
  facet normal -0 0 1
    outer loop
      vertex 1 4.5 10
      vertex 2 3.5 10
      vertex 2 4.5 10
    endloop
  endfacet
  facet normal 0 0 1
    outer loop
      vertex 1 4.5 10
      vertex 0 3.5 10
      vertex 2 3.5 10
    endloop
  endfacet
  facet normal 0 0 1
    outer loop
      vertex 0 3.5 10
      vertex 1 4.5 10
      vertex 0 8.5 10
    endloop
  endfacet
  facet normal 0.995562 -0.094106 0
    outer loop
      vertex 23.433 -1.06533 10
      vertex 23.4832 -0.533719 0
      vertex 23.4832 -0.533719 10
    endloop
  endfacet
  facet normal 0.995562 -0.094106 0
    outer loop
      vertex 23.4832 -0.533719 0
      vertex 23.433 -1.06533 10
      vertex 23.433 -1.06533 0
    endloop
  endfacet
  facet normal 0.960294 -0.278989 0
    outer loop
      vertex 23.084 -2.62664 10
      vertex 23.233 -2.11386 0
      vertex 23.233 -2.11386 10
    endloop
  endfacet
  facet normal 0.960294 -0.278989 0
    outer loop
      vertex 23.233 -2.11386 0
      vertex 23.084 -2.62664 10
      vertex 23.084 -2.62664 0
    endloop
  endfacet
  facet normal 0.278991 -0.960294 0
    outer loop
      vertex 17.1139 -8.23296 0
      vertex 17.6266 -8.08398 10
      vertex 17.1139 -8.23296 10
    endloop
  endfacet
  facet normal 0.278991 -0.960294 0
    outer loop
      vertex 17.6266 -8.08398 10
      vertex 17.1139 -8.23296 0
      vertex 17.6266 -8.08398 0
    endloop
  endfacet
  facet normal 0.45399 -0.891007 0
    outer loop
      vertex 18.6191 -7.69103 0
      vertex 19.0949 -7.44861 10
      vertex 18.6191 -7.69103 10
    endloop
  endfacet
  facet normal 0.45399 -0.891007 0
    outer loop
      vertex 19.0949 -7.44861 10
      vertex 18.6191 -7.69103 0
      vertex 19.0949 -7.44861 0
    endloop
  endfacet
  facet normal 0.790155 -0.612907 0
    outer loop
      vertex 21.5494 -5.4181 10
      vertex 21.8766 -4.99617 0
      vertex 21.8766 -4.99617 10
    endloop
  endfacet
  facet normal 0.790155 -0.612907 0
    outer loop
      vertex 21.8766 -4.99617 0
      vertex 21.5494 -5.4181 10
      vertex 21.5494 -5.4181 0
    endloop
  endfacet
  facet normal 0.975916 -0.218145 0
    outer loop
      vertex 23.233 -2.11386 10
      vertex 23.3494 -1.59274 0
      vertex 23.3494 -1.59274 10
    endloop
  endfacet
  facet normal 0.975916 -0.218145 0
    outer loop
      vertex 23.3494 -1.59274 0
      vertex 23.233 -2.11386 10
      vertex 23.233 -2.11386 0
    endloop
  endfacet
  facet normal -1 0 0
    outer loop
      vertex 0 -8.5 0
      vertex 0 -3.5 10
      vertex 0 -3.5 0
    endloop
  endfacet
  facet normal -1 -0 0
    outer loop
      vertex 0 -3.5 10
      vertex 0 -8.5 0
      vertex 0 -8.5 10
    endloop
  endfacet
  facet normal 1 -0 0
    outer loop
      vertex 1 -7.5 10
      vertex 1 -4.5 0
      vertex 1 -4.5 10
    endloop
  endfacet
  facet normal 1 0 0
    outer loop
      vertex 1 -4.5 0
      vertex 1 -7.5 10
      vertex 1 -7.5 0
    endloop
  endfacet
  facet normal 0 1 -0
    outer loop
      vertex 2 -3.5 0
      vertex 0 -3.5 10
      vertex 2 -3.5 10
    endloop
  endfacet
  facet normal 0 1 0
    outer loop
      vertex 0 -3.5 10
      vertex 2 -3.5 0
      vertex 0 -3.5 0
    endloop
  endfacet
  facet normal 0 -1 0
    outer loop
      vertex 0 -8.5 0
      vertex 15 -8.5 10
      vertex 0 -8.5 10
    endloop
  endfacet
  facet normal 0 -1 -0
    outer loop
      vertex 15 -8.5 10
      vertex 0 -8.5 0
      vertex 15 -8.5 0
    endloop
  endfacet
  facet normal -1 0 0
    outer loop
      vertex 0 3.5 0
      vertex 0 8.5 10
      vertex 0 8.5 0
    endloop
  endfacet
  facet normal -1 -0 0
    outer loop
      vertex 0 8.5 10
      vertex 0 3.5 0
      vertex 0 3.5 10
    endloop
  endfacet
  facet normal 1 -0 0
    outer loop
      vertex 1 4.5 10
      vertex 1 7.5 0
      vertex 1 7.5 10
    endloop
  endfacet
  facet normal 1 0 0
    outer loop
      vertex 1 7.5 0
      vertex 1 4.5 10
      vertex 1 4.5 0
    endloop
  endfacet
  facet normal 0 1 -0
    outer loop
      vertex 15 8.5 0
      vertex 0 8.5 10
      vertex 15 8.5 10
    endloop
  endfacet
  facet normal 0 1 0
    outer loop
      vertex 0 8.5 10
      vertex 15 8.5 0
      vertex 0 8.5 0
    endloop
  endfacet
  facet normal 0 -1 0
    outer loop
      vertex 0 3.5 0
      vertex 2 3.5 10
      vertex 0 3.5 10
    endloop
  endfacet
  facet normal 0 -1 -0
    outer loop
      vertex 2 3.5 10
      vertex 0 3.5 0
      vertex 2 3.5 0
    endloop
  endfacet
  facet normal 1 -0 0
    outer loop
      vertex 2 -4.5 10
      vertex 2 -3.5 0
      vertex 2 -3.5 10
    endloop
  endfacet
  facet normal 1 0 0
    outer loop
      vertex 2 -3.5 0
      vertex 2 -4.5 10
      vertex 2 -4.5 0
    endloop
  endfacet
  facet normal 0 -1 0
    outer loop
      vertex 1 -4.5 0
      vertex 2 -4.5 10
      vertex 1 -4.5 10
    endloop
  endfacet
  facet normal 0 -1 -0
    outer loop
      vertex 2 -4.5 10
      vertex 1 -4.5 0
      vertex 2 -4.5 0
    endloop
  endfacet
  facet normal 1 -0 0
    outer loop
      vertex 2 3.5 10
      vertex 2 4.5 0
      vertex 2 4.5 10
    endloop
  endfacet
  facet normal 1 0 0
    outer loop
      vertex 2 4.5 0
      vertex 2 3.5 10
      vertex 2 3.5 0
    endloop
  endfacet
  facet normal 0 1 -0
    outer loop
      vertex 2 4.5 0
      vertex 1 4.5 10
      vertex 2 4.5 10
    endloop
  endfacet
  facet normal 0 1 0
    outer loop
      vertex 1 4.5 10
      vertex 2 4.5 0
      vertex 1 4.5 0
    endloop
  endfacet
  facet normal 0 -1 0
    outer loop
      vertex 1 7.5 0
      vertex 15 7.5 10
      vertex 1 7.5 10
    endloop
  endfacet
  facet normal 0 -1 -0
    outer loop
      vertex 15 7.5 10
      vertex 1 7.5 0
      vertex 15 7.5 0
    endloop
  endfacet
  facet normal 0 1 -0
    outer loop
      vertex 15 -7.5 0
      vertex 1 -7.5 10
      vertex 15 -7.5 10
    endloop
  endfacet
  facet normal 0 1 0
    outer loop
      vertex 1 -7.5 10
      vertex 15 -7.5 0
      vertex 1 -7.5 0
    endloop
  endfacet
endsolid OpenSCAD_Model
